<svg height="300" width="300" xmlns="http://www.w3.org/2000/svg"><g fill="#fff" fill-rule="evenodd"><path d="M255.882 0C280.248 0 300 19.752 300 44.118v211.764C300 280.248 280.248 300 255.882 300H44.118C19.752 300 0 280.248 0 255.882V44.118C0 19.752 19.752 0 44.118 0zm-90.355 154.676c-5.225-5.841-12.492-9.125-21.813-9.833 8.292-2.26 14.313-5.566 18.122-9.983 3.791-4.359 5.672-10.276 5.672-17.723 0-5.895-1.289-11.11-3.785-15.616-2.561-4.479-6.238-8.063-11.074-10.746-4.229-2.327-9.256-3.968-15.116-4.936-5.889-.938-16.195-1.411-30.984-1.411h-35.96v131.145h37.048c14.884 0 25.617-.521 32.18-1.518 6.557-1.031 12.059-2.766 16.512-5.145 5.508-2.906 9.709-7.043 12.645-12.357 2.955-5.332 4.418-11.48 4.418-18.51-.001-9.727-2.621-17.543-7.865-23.367zm28.596-70.852v88.238h30.883V83.824zm15.443 97.061c-9.75 0-17.648 7.893-17.648 17.643s7.898 17.65 17.648 17.65c9.738 0 17.643-7.9 17.643-17.65s-7.904-17.643-17.643-17.643z" fill-rule="nonzero"/><path d="M103.792 113.502h7.676c8.871 0 14.831 1 17.907 2.994 3.034 2.004 4.583 5.462 4.583 10.389 0 4.74-1.647 8.079-4.905 10.037-3.301 1.921-9.316 2.895-18.123 2.895h-7.138zm30.448 75.205c-3.492 2.145-9.51 3.199-17.954 3.199h-12.492v-28.654h13.032c8.671 0 14.666 1.092 17.854 3.271 3.24 2.18 4.833 6.029 4.833 11.555-.001 4.945-1.749 8.496-5.273 10.629z"/></g></svg>
