<svg xmlns="http://www.w3.org/2000/svg" width="300" height="300"><path fill="#FFF" d="M299.149 53.116c-3.388 5.674-7.97 11.666-13.748 17.97-4.583 5.044-10.165 10.195-16.738 15.448v4.1c0 1.05.098 1.786.296 2.206v2.207c0 21.648-3.883 43.35-11.655 65.104-7.771 21.752-18.83 41.247-33.178 58.481-15.344 18.496-33.973 33.103-55.892 43.823-21.92 10.72-46.43 16.078-73.528 16.078-17.536 0-34.074-2.52-49.617-7.565-15.94-5.046-30.686-12.191-44.238-21.44.799.211 1.993.317 3.588.317 3.187.42 5.58.63 7.174.63h3.884c13.949 0 27.6-2.416 40.95-7.251 12.354-4.624 24.01-11.35 34.97-20.177-12.752-.21-24.61-4.625-35.567-13.243-10.761-8.406-17.936-19.02-21.521-31.84 2.989.63 4.882.944 5.68.944h2.986c.6.21 1.495.316 2.691.316 1.792 0 3.188-.106 4.186-.316 1.991 0 4.783-.42 8.368-1.26.397 0 .997-.107 1.793-.316.799-.21 1.395-.315 1.793-.315-14.149-2.943-25.805-10.404-34.972-22.385-9.365-11.98-14.045-25.641-14.045-40.984v-.946c3.786 2.522 8.17 4.414 13.151 5.675 5.18 1.68 10.061 2.522 14.646 2.522-8.77-6.305-15.345-13.977-19.728-23.014-4.982-9.248-7.473-19.548-7.473-30.897 0-6.305.697-11.98 2.092-17.025.798-3.574 2.79-8.722 5.979-15.447 15.542 20.175 34.073 35.94 55.594 47.29 22.12 12.19 45.63 18.915 70.54 20.177-.598-4.415-.896-6.83-.896-7.25-.4-2.944-.6-5.36-.6-7.253 0-17.865 5.98-33.103 17.934-45.713 11.957-12.611 26.403-18.916 43.341-18.916 8.767 0 17.036 1.786 24.808 5.359 7.77 3.993 14.446 9.038 20.026 15.133 6.376-1.472 13.15-3.573 20.324-6.306 5.978-2.312 12.156-5.464 18.531-9.457-2.389 7.565-5.879 14.396-10.459 20.492-5.182 6.305-10.66 11.349-16.44 15.133a271.956 271.956 0 0 0 17.932-3.784c4.583-1.26 10.263-3.363 17.038-6.305z"/></svg>
